<svg width="165" height="165" viewBox="0 0 165 165" fill="none" xmlns="http://www.w3.org/2000/svg">
<circle cx="34" cy="75.1294" r="26" fill="url(#paint0_radial_508_5478)"/>
<path d="M88.371 138.349C70.9693 138.349 53.5677 138.225 36.1699 138.403C27.9237 138.488 19.9845 132.161 20 122.329C20.0428 95.9095 20.0428 69.4896 20 43.0735C19.9845 33.184 27.9936 26.9691 36.1699 27.0001C70.9732 27.1356 105.773 27.0543 140.576 27.0582C149.864 27.0582 156.645 33.7532 156.653 43.0038C156.672 69.4702 156.672 95.9404 156.653 122.407C156.645 131.654 149.86 138.349 140.576 138.352C123.174 138.352 105.773 138.349 88.371 138.349ZM26.342 58.0821C26.342 58.7133 26.342 59.1896 26.342 59.6658C26.342 80.5292 26.3382 101.396 26.3459 122.26C26.3459 128.3 30.1231 132.118 36.2281 132.122C70.981 132.141 105.734 132.145 140.487 132.122C146.564 132.118 150.33 128.273 150.33 122.221C150.334 101.358 150.334 80.4904 150.334 59.6271C150.334 59.1199 150.334 58.6126 150.334 58.0821C108.916 58.0821 67.7284 58.0821 26.342 58.0821ZM26.6141 51.6272C67.7828 51.6272 109.002 51.6272 150.322 51.6272C150.322 48.4481 150.326 45.3659 150.322 42.2836C150.318 40.1191 149.553 38.2294 148.173 36.5838C146.048 34.0475 143.238 33.2537 140.02 33.2576C105.559 33.2847 71.1015 33.273 36.64 33.2769C36.0105 33.2769 35.381 33.3002 34.7514 33.3544C30.7877 33.6835 27.2358 36.3708 26.719 40.3127C26.2371 43.9951 26.6141 47.7899 26.6141 51.6272Z" fill="#EDEDED"/>
<g filter="url(#filter0_b_508_5478)">
<path d="M26.342 58.0821C67.7283 58.0821 108.917 58.0821 150.33 58.0821C150.33 58.6126 150.33 59.1199 150.33 59.6271C150.33 80.4904 150.334 101.358 150.326 122.221C150.326 128.273 146.561 132.118 140.483 132.122C105.73 132.145 70.9771 132.145 36.2242 132.122C30.1232 132.118 26.3459 128.296 26.342 122.26C26.3381 101.396 26.3381 80.5292 26.3381 59.6658C26.342 59.1896 26.342 58.7133 26.342 58.0821ZM52.4251 95.077C56.6648 90.8563 60.7801 86.7634 64.8876 82.6705C65.2646 82.2949 65.6571 81.927 65.968 81.5011C66.8307 80.3239 66.8656 79.05 66.0729 77.8574C65.2607 76.6338 63.9939 76.2388 62.6299 76.6763C61.9343 76.8971 61.2853 77.4314 60.7529 77.958C55.9342 82.7169 51.1466 87.4991 46.3551 92.2851C44.3577 94.2793 44.3655 95.8475 46.3785 97.8533C51.17 102.635 55.9692 107.414 60.7645 112.188C61.0366 112.459 61.3047 112.75 61.6117 112.982C62.9019 113.954 64.5807 113.838 65.7076 112.722C66.8074 111.638 66.9317 109.896 65.9602 108.633C65.6066 108.177 65.183 107.774 64.775 107.363C60.7024 103.309 56.622 99.255 52.4251 95.077ZM124.531 95.3441C123.994 95.6733 123.462 95.8824 123.089 96.2502C119.199 100.088 115.325 103.944 111.477 107.824C110.949 108.359 110.44 109.009 110.199 109.702C109.729 111.05 110.37 112.471 111.575 113.191C112.904 113.989 114.26 113.818 115.527 112.564C120.613 107.526 125.689 102.481 130.737 97.408C132.264 95.8746 132.155 94.1167 130.496 92.4555C125.607 87.5649 120.703 82.6898 115.799 77.8109C115.527 77.5398 115.243 77.2649 114.92 77.0558C113.801 76.3317 112.624 76.3085 111.501 76.9939C110.417 77.656 109.826 78.7247 110.141 79.9445C110.366 80.8196 110.898 81.7218 111.536 82.3685C115.701 86.6085 119.941 90.7827 124.531 95.3441ZM79.0328 116.699C80.6883 116.703 81.5238 115.661 82.1883 114.329C88.1417 102.434 94.1068 90.5465 100.064 78.655C100.278 78.2252 100.492 77.7838 100.628 77.3269C101.172 75.5224 99.8815 73.6135 98.0045 73.4431C96.3957 73.2959 95.362 74.0742 94.6625 75.4682C88.5925 87.5843 82.5109 99.6887 76.4331 111.801C76.3048 112.06 76.1883 112.324 76.095 112.599C75.3955 114.655 76.8566 116.691 79.0328 116.699Z" fill="white" fill-opacity="0.2"/>
</g>
<g filter="url(#filter1_b_508_5478)">
<path d="M26.614 51.6272C26.614 47.7899 26.2332 43.9951 26.7189 40.3127C27.2358 36.3708 30.7876 33.6835 34.7514 33.3544C35.3771 33.304 36.0105 33.2769 36.64 33.2769C71.1014 33.273 105.559 33.2847 140.02 33.2576C143.242 33.2537 146.048 34.0475 148.173 36.5838C149.553 38.2294 150.318 40.1191 150.322 42.2836C150.33 45.3659 150.322 48.4481 150.322 51.6272C109.002 51.6272 67.7827 51.6272 26.614 51.6272ZM60.442 45.5982C62.1674 45.5827 63.6014 44.1345 63.5586 42.4462C63.5159 40.8161 62.1091 39.4453 60.4498 39.4259C58.7399 39.4066 57.2555 40.8393 57.2594 42.5121C57.2633 44.2081 58.7127 45.6137 60.442 45.5982ZM38.6841 42.4733C38.6646 40.7192 37.2773 39.3833 35.5131 39.4221C33.811 39.4569 32.5053 40.7773 32.4936 42.4772C32.4819 44.2274 33.8382 45.5982 35.5908 45.5982C37.3551 45.5982 38.7035 44.2352 38.6841 42.4733ZM51.0961 42.4385C51.065 40.6921 49.6582 39.3717 47.894 39.4298C46.188 39.4879 44.9017 40.8122 44.9017 42.5121C44.9017 44.2662 46.2735 45.6137 48.0378 45.5943C49.7826 45.5788 51.1272 44.1926 51.0961 42.4385Z" fill="white" fill-opacity="0.2"/>
</g>
<path d="M52.4251 95.0769C56.6221 99.2512 60.6985 103.305 64.7711 107.367C65.183 107.778 65.6066 108.18 65.9563 108.637C66.9278 109.896 66.8035 111.638 65.7038 112.726C64.5729 113.842 62.898 113.958 61.6079 112.986C61.3009 112.753 61.0366 112.467 60.7607 112.192C55.9653 107.414 51.1661 102.635 46.3746 97.8572C44.3616 95.8514 44.3538 94.2832 46.3513 92.289C51.1427 87.5068 55.9343 82.7208 60.7491 77.9619C61.2853 77.4353 61.9304 76.9009 62.626 76.6802C63.99 76.2427 65.2568 76.6376 66.069 77.8612C66.8657 79.0539 66.8268 80.3278 65.9641 81.5049C65.6532 81.9309 65.2569 82.2987 64.8838 82.6743C60.7802 86.7672 56.6687 90.8563 52.4251 95.0769Z" fill="#EDEDED"/>
<path d="M124.531 95.3442C119.941 90.7788 115.705 86.6085 111.536 82.3723C110.894 81.7218 110.366 80.8235 110.141 79.9484C109.826 78.7286 110.417 77.6599 111.501 76.9978C112.624 76.3124 113.801 76.3356 114.92 77.0597C115.243 77.2688 115.527 77.5437 115.799 77.8148C120.703 82.6937 125.607 87.5688 130.496 92.4594C132.155 94.1205 132.264 95.8785 130.737 97.4119C125.689 102.484 120.613 107.534 115.527 112.568C114.26 113.822 112.907 113.993 111.575 113.195C110.37 112.475 109.729 111.05 110.199 109.706C110.44 109.013 110.949 108.362 111.477 107.828C115.325 103.948 119.199 100.091 123.089 96.2541C123.462 95.8824 123.994 95.6772 124.531 95.3442Z" fill="#EDEDED"/>
<path d="M79.0328 116.699C76.8567 116.692 75.3916 114.655 76.095 112.602C76.1883 112.331 76.3049 112.064 76.4331 111.805C82.5109 99.6926 88.5925 87.5843 94.6625 75.4721C95.362 74.0781 96.3957 73.296 98.0045 73.447C99.8776 73.6212 101.172 75.5263 100.628 77.3308C100.488 77.7877 100.278 78.2291 100.064 78.6589C94.1068 90.5504 88.1378 102.438 82.1883 114.333C81.5238 115.661 80.6883 116.703 79.0328 116.699Z" fill="#EDEDED"/>
<path d="M60.4421 45.5982C58.7089 45.6137 57.2633 44.2081 57.2594 42.5121C57.2555 40.8393 58.74 39.4066 60.4498 39.4259C62.1092 39.4453 63.5159 40.8161 63.5587 42.4462C63.6053 44.1345 62.1713 45.5827 60.4421 45.5982Z" fill="#EDEDED"/>
<path d="M38.6841 42.4733C38.7035 44.2352 37.3551 45.5943 35.5869 45.5943C33.8343 45.5943 32.478 44.2236 32.4897 42.4733C32.5014 40.7735 33.8071 39.4569 35.5092 39.4182C37.2773 39.3872 38.6685 40.7192 38.6841 42.4733Z" fill="#EDEDED"/>
<path d="M51.0961 42.4385C51.1271 44.1926 49.7826 45.5788 48.0377 45.5982C46.2735 45.6176 44.9017 44.2662 44.9017 42.5159C44.9017 40.816 46.188 39.4918 47.894 39.4337C49.6582 39.3717 51.065 40.6883 51.0961 42.4385Z" fill="#EDEDED"/>
<defs>
<filter id="filter0_b_508_5478" x="16.3381" y="48.0821" width="143.993" height="94.0574" filterUnits="userSpaceOnUse" color-interpolation-filters="sRGB">
<feFlood flood-opacity="0" result="BackgroundImageFix"/>
<feGaussianBlur in="BackgroundImageFix" stdDeviation="5"/>
<feComposite in2="SourceAlpha" operator="in" result="effect1_backgroundBlur_508_5478"/>
<feBlend mode="normal" in="SourceGraphic" in2="effect1_backgroundBlur_508_5478" result="shape"/>
</filter>
<filter id="filter1_b_508_5478" x="16.472" y="23.2575" width="143.854" height="38.3697" filterUnits="userSpaceOnUse" color-interpolation-filters="sRGB">
<feFlood flood-opacity="0" result="BackgroundImageFix"/>
<feGaussianBlur in="BackgroundImageFix" stdDeviation="5"/>
<feComposite in2="SourceAlpha" operator="in" result="effect1_backgroundBlur_508_5478"/>
<feBlend mode="normal" in="SourceGraphic" in2="effect1_backgroundBlur_508_5478" result="shape"/>
</filter>
<radialGradient id="paint0_radial_508_5478" cx="0" cy="0" r="1" gradientUnits="userSpaceOnUse" gradientTransform="translate(8 75.1294) scale(52)">
<stop stop-color="#FFD166"/>
<stop offset="1" stop-color="#C29324"/>
</radialGradient>
</defs>
</svg>
