<svg width="51" height="51" viewBox="0 0 51 51" fill="none" xmlns="http://www.w3.org/2000/svg">
<path d="M23.6243 2.06901C24.2686 0.327778 26.7314 0.327775 27.3757 2.06901L32.8784 16.9399C33.081 17.4874 33.5126 17.919 34.0601 18.1216L48.931 23.6243C50.6722 24.2686 50.6722 26.7314 48.931 27.3757L34.0601 32.8784C33.5126 33.081 33.081 33.5126 32.8784 34.0601L27.3757 48.931C26.7314 50.6722 24.2686 50.6722 23.6243 48.931L18.1216 34.0601C17.919 33.5126 17.4874 33.081 16.9399 32.8784L2.06901 27.3757C0.327778 26.7314 0.327775 24.2686 2.06901 23.6243L16.9399 18.1216C17.4874 17.919 17.919 17.4874 18.1216 16.9399L23.6243 2.06901Z" fill="#E5D11E"/>
</svg>
