<svg width="165" height="165" viewBox="0 0 165 165" fill="none" xmlns="http://www.w3.org/2000/svg">
<circle cx="101" cy="89.6185" r="26" fill="url(#paint0_radial_508_5526)"/>
<path d="M112.372 157.464C108.649 153.805 104.895 150.177 101.219 146.471C100.329 145.576 100.357 144.364 101.239 143.455C104.643 139.95 108.086 136.481 111.568 133.054C112.508 132.128 113.857 132.229 114.844 133.155C115.792 134.045 116.678 135.005 117.599 135.942C132.852 116.458 135.172 85.5925 118.862 62.3633C113.717 64.5511 108.816 64.2297 104.724 60.1252C100.671 56.0594 100.337 51.223 102.54 46.1117C82.745 31.7459 51.7694 30.0422 28.4415 47.3779C29.3819 48.1988 30.3262 48.9462 31.1773 49.7864C32.4985 51.0875 32.5296 52.4234 31.2511 53.7012C28.0334 56.9151 24.7964 60.1135 21.5399 63.2887C20.1992 64.5936 18.9673 64.5704 17.6305 63.25C14.3973 60.0516 11.1758 56.8415 7.97371 53.6083C6.68355 52.3033 6.68744 51.1417 7.99702 49.8251C11.1991 46.5957 14.4245 43.3857 17.6616 40.1912C19.0295 38.8436 20.1953 38.8553 21.5632 40.2144C22.7601 41.4031 23.8948 42.6577 24.979 43.8039C46.3794 28.9541 69.0117 26.2281 93.2878 35.1573C91.8034 33.7246 90.3034 32.3035 88.8344 30.8515C86.394 28.4352 83.9497 26.0151 81.5559 23.5524C80.9186 22.898 80.394 22.6695 79.4419 22.9561C75.6608 24.1061 71.6931 21.9416 70.57 18.232C69.4198 14.4179 71.5377 10.4373 75.4159 9.32599C78.0196 8.58254 80.4367 9.09754 82.403 11.0065C84.4432 12.9891 85.0766 15.4363 84.3033 18.1739C84.109 18.8671 83.9613 19.3549 84.5753 19.9629C91.7567 27.0838 98.907 34.2396 106.069 41.3799C106.201 41.5116 106.364 41.6122 106.493 41.7129C112.66 38.7662 117.84 39.3896 121.835 43.5329C124.951 46.7661 126.719 52.4273 123.199 58.3362C123.447 58.6227 123.708 58.9519 124.003 59.2462C130.932 66.1425 137.868 73.0273 144.782 79.943C145.427 80.5858 145.924 80.8026 146.9 80.5044C150.444 79.4086 154.019 81.1666 155.503 84.5664C155.655 84.911 155.834 85.2401 156.005 85.577C156.005 86.7348 156.005 87.8964 156.005 89.0542C155.907 89.213 155.779 89.3601 155.713 89.5305C154.167 93.4801 150.413 95.3504 146.62 94.061C142.881 92.7909 141.036 89.0813 142.062 85.0814C142.182 84.6167 141.968 83.8694 141.626 83.5209C137.938 79.7532 134.192 76.0359 130.458 72.3109C130.221 72.0747 129.937 71.8888 129.583 71.6023C138.797 95.7957 136.046 118.34 121.139 139.617C122.293 140.705 123.517 141.801 124.679 142.963C126.105 144.388 126.121 145.545 124.703 146.959C121.186 150.475 117.642 153.96 114.109 157.456C113.534 157.464 112.955 157.464 112.372 157.464ZM113.138 58.948C117.203 58.948 120.471 55.6992 120.416 51.7032C120.366 47.7458 117.125 44.5396 113.165 44.5319C109.116 44.5241 105.91 47.7497 105.929 51.8154C105.945 55.8193 109.108 58.948 113.138 58.948ZM19.6979 45.2908C17.5217 47.4476 15.2678 49.678 13.2121 51.7148C15.3766 53.86 17.6228 56.0903 19.7756 58.2239C21.8702 56.1368 24.0852 53.9258 26.2303 51.7845C24.0775 49.6431 21.8546 47.436 19.6979 45.2908ZM106.695 144.949C108.902 147.149 111.113 149.356 113.149 151.385C115.294 149.247 117.537 147.017 119.62 144.945C117.525 142.854 115.31 140.643 113.165 138.502C111.043 140.612 108.832 142.819 106.695 144.949ZM151.345 87.3698C151.369 86.0843 150.304 84.9962 148.983 84.9497C147.572 84.8994 146.433 85.9371 146.406 87.2924C146.383 88.5896 147.428 89.6622 148.761 89.7125C150.172 89.7667 151.318 88.7212 151.345 87.3698ZM77.4328 18.6231C78.7463 18.6463 79.8111 17.5931 79.8382 16.2456C79.8655 14.8555 79.0028 13.9571 77.6349 13.9494C76.2981 13.9455 75.2061 14.9716 75.1633 16.2766C75.1245 17.5118 76.1776 18.5999 77.4328 18.6231Z" fill="#EDEDED"/>
<path d="M44.5957 157.464C32.4285 145.36 20.2613 133.255 8.10581 121.139C6.39984 119.439 6.68352 117.859 8.84804 116.771C13.2937 114.537 17.7393 112.307 22.2121 110.131C23.1875 109.658 23.7976 109.035 24.1862 108.012C27.0969 100.357 30.0736 92.7289 32.9726 85.0697C33.4583 83.7919 34.2278 83.0291 35.5024 82.5257C55.0297 74.7775 74.5532 67.0138 94.0534 59.192C95.7671 58.5027 96.9485 58.7893 98.1764 60.0787C100.411 62.4252 102.731 64.6905 105.055 66.9518C106.116 67.9818 106.384 69.0273 105.809 70.4523C97.9083 90.0649 90.0391 109.689 82.1932 129.325C81.7191 130.514 80.9613 131.187 79.7994 131.629C72.0312 134.576 64.2707 137.538 56.5375 140.566C55.8264 140.845 55.1075 141.53 54.7499 142.212C52.5777 146.351 50.5258 150.552 48.3924 154.711C47.8989 155.675 47.2266 156.546 46.6359 157.46C45.9519 157.464 45.2758 157.464 44.5957 157.464ZM96.2839 65.0351C95.736 63.8773 95.0093 63.8773 93.9173 64.3149C75.4936 71.703 57.0505 79.0485 38.5996 86.3747C37.7136 86.727 37.2084 87.1994 36.8703 88.09C34.1617 95.1994 31.4143 102.293 28.6513 109.383C28.3365 110.185 28.3637 110.723 29.036 111.389C37.154 119.42 45.2408 127.478 53.3043 135.559C53.9494 136.206 54.4663 136.314 55.3095 135.989C62.4637 133.205 69.6451 130.487 76.7877 127.668C77.4366 127.412 78.105 126.707 78.3693 126.057C85.7916 107.695 93.1518 89.3059 100.574 70.944C101.06 69.7437 100.885 69.0621 100.026 68.6556C89.9963 78.6458 80.0442 88.5663 70.0609 98.5101C74.2851 105.12 72.2566 112.806 67.1192 116.841C61.8109 121.015 54.2525 120.717 49.2745 116.132C44.3237 111.571 43.461 104.04 47.2499 98.4559C51.4546 92.2565 58.3368 90.9516 66.4586 94.7734C76.4069 84.849 86.3357 74.9517 96.2839 65.0351ZM44.9416 151.036C46.8729 147.195 48.7654 143.424 50.553 139.865C41.8833 131.215 33.3379 122.688 24.7303 114.099C21.0696 115.931 17.2885 117.821 13.5191 119.706C24.0308 130.188 34.4065 140.531 44.9416 151.036ZM58.6243 97.1471C53.6269 97.1432 49.5155 101.24 49.5815 106.158C49.6437 111.044 53.7201 115.075 58.6088 115.087C63.5207 115.099 67.5855 111.068 67.6011 106.173C67.6127 101.12 63.6645 97.1471 58.6243 97.1471Z" fill="#EDEDED"/>
<g filter="url(#filter0_b_508_5526)">
<path d="M96.284 65.0351C86.3358 74.9517 76.4069 84.8529 66.4587 94.7696C58.3368 90.9516 51.4547 92.2526 47.25 98.452C43.4611 104.036 44.3238 111.567 49.2746 116.129C54.2487 120.713 61.811 121.011 67.1193 116.837C72.2528 112.798 74.2851 105.116 70.061 98.5062C80.0404 88.5624 89.9964 78.6419 100.026 68.6517C100.885 69.0583 101.06 69.7398 100.574 70.9402C93.1519 89.302 85.7917 107.691 78.3694 126.053C78.1051 126.707 77.4367 127.408 76.7878 127.664C69.6452 130.479 62.4638 133.197 55.3096 135.985C54.4663 136.314 53.9495 136.202 53.3044 135.555C45.2409 127.474 37.154 119.416 29.0361 111.385C28.3638 110.719 28.3405 110.185 28.6514 109.379C31.4144 102.293 34.1657 95.1955 36.8704 88.0862C37.2084 87.1956 37.7175 86.7193 38.5996 86.3708C57.0506 79.0485 75.4898 71.6991 93.9174 64.311C95.0094 63.8734 95.7322 63.8773 96.284 65.0351Z" fill="white" fill-opacity="0.2"/>
</g>
<defs>
<filter id="filter0_b_508_5526" x="18.4589" y="54.0425" width="92.3821" height="92.1221" filterUnits="userSpaceOnUse" color-interpolation-filters="sRGB">
<feFlood flood-opacity="0" result="BackgroundImageFix"/>
<feGaussianBlur in="BackgroundImageFix" stdDeviation="5"/>
<feComposite in2="SourceAlpha" operator="in" result="effect1_backgroundBlur_508_5526"/>
<feBlend mode="normal" in="SourceGraphic" in2="effect1_backgroundBlur_508_5526" result="shape"/>
</filter>
<radialGradient id="paint0_radial_508_5526" cx="0" cy="0" r="1" gradientUnits="userSpaceOnUse" gradientTransform="translate(124 77.1185) rotate(141.78) scale(50.9141)">
<stop stop-color="#00C2B6"/>
<stop offset="1" stop-color="#007B96"/>
</radialGradient>
</defs>
</svg>
