<svg width="165" height="165" viewBox="0 0 165 165" fill="none" xmlns="http://www.w3.org/2000/svg">
<circle cx="82.0522" cy="41.6267" r="26" fill="url(#paint0_radial_508_5514)"/>
<g filter="url(#filter0_b_508_5514)">
<path d="M63.6671 118.137H102.24C102.24 118.137 102.178 116.705 115.177 97.7737C128.179 78.8426 116.669 58.3665 116.669 58.3665C116.669 58.3665 109.278 38.657 82.46 36.9881C55.6424 35.3192 44.2991 60.9608 44.2991 60.9608C44.2991 60.9608 37.8211 85.5221 49.6346 97.7659C59.9054 111.772 63.6671 118.137 63.6671 118.137Z" fill="white" fill-opacity="0.2"/>
</g>
<path d="M79.258 83.6906C78.6828 83.0671 78.2243 82.5831 77.7774 82.0913C75.5701 79.6557 73.4017 77.1814 71.1439 74.7923C68.4354 71.923 64.2035 71.7139 61.3433 74.2192C58.3705 76.829 57.9897 81.0187 60.671 84.0584C65.276 89.2781 69.9548 94.4397 74.7074 99.5278C77.4432 102.455 82.3707 102.285 84.9044 99.2025C87.9433 95.5085 90.8345 91.6944 93.7529 87.9035C94.6545 86.7302 94.4796 85.5066 93.4381 84.7012C92.455 83.9422 91.157 84.1552 90.236 85.2278C90.1117 85.375 90.0029 85.5376 89.8824 85.6886C87.2671 89.0419 84.6596 92.3991 82.0365 95.7447C80.5559 97.6304 78.9549 97.6691 77.315 95.8763C75.6206 94.0177 73.9341 92.1513 72.2476 90.2888C69.5856 87.3536 66.9315 84.4069 64.2501 81.4834C63.4535 80.6122 63.0687 79.5512 63.6089 78.5754C63.9975 77.8745 64.9146 77.1001 65.6452 77.0459C66.4535 76.9839 67.5338 77.5028 68.1245 78.1224C71.1284 81.2704 74.004 84.5386 76.9419 87.7486C79.0015 90.0022 80.0041 89.9403 81.8849 87.5201C86.692 81.3401 91.5029 75.164 96.3138 68.9917C97.6972 67.2183 99.1351 66.8659 100.495 67.8959C101.583 68.7168 101.789 70.6878 100.472 72.136C99.1079 73.6306 97.9343 75.2995 96.7218 76.9297C95.8358 78.1224 95.9796 79.3382 97.0016 80.132C98.0003 80.9065 99.275 80.7438 100.192 79.6093C101.712 77.7313 103.215 75.8339 104.638 73.8862C105.699 72.4341 106.169 70.7536 105.846 68.9569C105.302 65.9211 103.557 63.865 100.519 63.1293C97.5418 62.4129 95.0742 63.3964 93.205 65.7856C88.6 71.679 84.0106 77.5919 79.258 83.6906Z" fill="white"/>
<path d="M19.5256 83.4272C21.8456 83.4272 24.1655 83.4505 26.4816 83.4195C28.0865 83.3963 29.1513 82.4592 29.1474 81.1659C29.1397 79.8687 28.0827 78.9549 26.4583 78.9471C21.8689 78.9239 17.2795 78.9239 12.6862 78.9471C10.9647 78.9549 10.032 79.7448 10.0009 81.1194C9.96595 82.5599 10.9297 83.404 12.7095 83.4234C14.9828 83.4466 17.2523 83.4272 19.5256 83.4272Z" fill="white"/>
<path d="M145.406 83.4272C147.629 83.4272 149.852 83.4427 152.075 83.4233C153.874 83.4079 154.845 82.6024 154.853 81.1852C154.857 79.7603 153.897 78.951 152.086 78.9471C147.543 78.9316 143.001 78.9316 138.462 78.9471C136.81 78.9548 135.761 79.8106 135.707 81.1C135.652 82.4359 136.756 83.4001 138.45 83.4195C140.766 83.4466 143.086 83.4272 145.406 83.4272Z" fill="white"/>
<path d="M30.2356 31.4432C30.733 32.268 31.0089 32.9998 31.5102 33.5109C34.7318 36.7868 37.9921 40.0239 41.2564 43.2572C42.5194 44.5118 43.6619 44.6241 44.6839 43.6522C45.7448 42.6493 45.6476 41.4334 44.3536 40.1285C42.1735 37.9291 39.974 35.7529 37.7784 33.569C36.6126 32.4112 35.5245 31.145 34.2305 30.1538C33.6514 29.7123 32.5828 29.5729 31.8561 29.7588C31.2654 29.9176 30.8535 30.7617 30.2356 31.4432Z" fill="white"/>
<path d="M134.583 31.5981C134.012 30.9088 133.612 30.0802 132.951 29.7084C132.05 29.2051 131.102 29.5419 130.332 30.3203C127.025 33.6465 123.683 36.9378 120.372 40.264C119.21 41.4295 119.144 42.5873 120.096 43.5747C121.083 44.6009 122.3 44.5389 123.524 43.3269C126.827 40.0627 130.118 36.7868 133.379 33.4838C133.826 33.0385 134.086 32.3996 134.583 31.5981Z" fill="white"/>
<path d="M32.6099 133.115C33.3755 132.693 34.005 132.499 34.4208 132.089C37.8405 128.736 41.2331 125.359 44.6022 121.959C45.6593 120.894 45.6554 119.682 44.7305 118.753C43.8017 117.82 42.597 117.828 41.5128 118.854C40.3859 119.915 39.3133 121.03 38.2136 122.122C35.9169 124.41 33.6281 126.703 31.3275 128.98C30.5503 129.75 30.2744 130.707 30.8107 131.605C31.1876 132.221 31.9687 132.596 32.6099 133.115Z" fill="white"/>
<path d="M134.568 130.722C134.086 129.952 133.83 129.313 133.379 128.86C130.115 125.557 126.823 122.285 123.52 119.02C122.292 117.808 121.076 117.75 120.092 118.776C119.113 119.799 119.23 120.933 120.477 122.192C122.214 123.942 123.967 125.677 125.716 127.415C127.328 129.018 128.859 130.714 130.596 132.166C131.16 132.639 132.341 132.755 133.08 132.527C133.682 132.345 134.047 131.396 134.568 130.722Z" fill="white"/>
<path d="M83.2994 9C84.3486 9.77831 84.7217 10.8044 84.7061 12.1132C84.6517 16.4036 84.6867 20.694 84.6828 24.9844C84.6828 25.3677 84.6945 25.7627 84.6168 26.1344C84.368 27.3077 83.6414 28.0628 82.425 28.0628C81.2087 28.0628 80.4393 27.3154 80.245 26.1344C80.1206 25.3832 80.1711 24.5972 80.1711 23.8266C80.1672 19.9234 80.2061 16.0164 80.1478 12.1132C80.1323 10.8044 80.5014 9.77444 81.5546 9C82.1375 9 82.7165 9 83.2994 9Z" fill="#EDEDED"/>
<path d="M63.6672 118.137C64.2074 118.137 64.6854 118.137 65.1633 118.137C76.8448 118.137 88.5262 118.118 100.212 118.165C101.397 118.168 101.863 117.859 102.123 116.674C102.99 112.736 105.263 109.541 107.953 106.656C111.524 102.823 114.928 98.9043 117.248 94.1416C128.133 71.7758 115.938 45.0113 91.9576 38.7074C74.5986 34.146 55.9884 42.7035 47.8238 59.0054C47.6956 59.2648 47.5945 59.5397 47.4546 59.7914C46.7085 61.1389 45.4767 61.5959 44.307 60.9608C43.1761 60.349 42.7292 59.1215 43.5025 57.8476C45.4533 54.6376 47.2487 51.2726 49.6386 48.4072C56.7384 39.8923 65.9405 34.8507 76.9613 33.4296C98.1908 30.6959 118.445 44.1556 123.959 64.8253C128.226 80.829 124.565 95.0593 113.339 107.315C112.523 108.205 111.706 109.1 110.89 109.99C107.525 113.677 105.64 117.866 105.967 122.997C106.188 126.509 105.978 130.048 106.06 133.572C106.157 137.797 104.548 141.13 101.218 143.74C100.752 144.108 100.526 145.045 100.538 145.715C100.623 149.661 99.2439 152.89 96.0612 155.276C94.1921 156.677 92.0703 157.401 89.7076 157.394C85.1493 157.386 80.5948 157.409 76.0365 157.386C70.1686 157.359 65.3693 152.743 65.2994 146.881C65.276 145.068 64.8719 143.837 63.3758 142.633C60.9897 140.712 59.7928 137.994 59.719 134.889C59.6218 130.687 59.4547 126.482 59.5325 122.285C59.6024 118.405 58.3394 115.082 55.8874 112.182C53.3575 109.197 50.5479 106.432 48.1775 103.33C41.5207 94.6217 38.61 84.7244 39.3561 73.7932C39.4766 72.0159 39.7253 70.2463 39.9973 68.4884C40.1994 67.1796 41.2914 66.3664 42.4378 66.5174C43.6697 66.68 44.4197 67.6055 44.3342 68.9879C44.1476 72.0159 43.6813 75.044 43.7435 78.0643C43.9417 87.7563 47.4547 96.1899 53.9482 103.396C55.1801 104.759 56.478 106.064 57.7177 107.423C60.5079 110.502 62.7734 113.882 63.6672 118.137ZM64.1996 129.804C64.8486 129.804 65.3771 129.804 65.9017 129.804C72.1038 129.804 78.3059 129.804 84.5119 129.804C84.85 129.804 85.192 129.8 85.5301 129.804C87.4342 129.824 88.5068 130.648 88.4524 132.046C88.398 133.394 87.3332 134.192 85.5456 134.192C78.9549 134.195 72.3642 134.192 65.7734 134.192C65.2488 134.192 64.7242 134.192 64.2112 134.192C63.9392 137.975 66.9898 141.305 71.0662 141.371C78.916 141.498 86.7658 141.491 94.6156 141.374C98.6921 141.312 101.657 138.141 101.564 134.346C101.478 134.304 101.393 134.226 101.307 134.223C99.9007 134.207 98.4978 134.199 97.0911 134.188C95.2957 134.176 94.2542 133.394 94.2154 132.031C94.1726 130.598 95.1908 129.808 97.126 129.797C98.6066 129.789 100.087 129.797 101.521 129.797C101.521 127.264 101.521 124.968 101.521 122.707C88.9848 122.707 76.565 122.707 64.0947 122.707C64.0947 124.902 64.0908 126.978 64.0986 129.053C64.0947 129.247 64.1452 129.433 64.1996 129.804ZM69.7255 145.847C69.3525 149.711 72.1504 152.929 76.0598 153.014C80.6142 153.111 85.1726 153.127 89.727 153.01C93.6364 152.91 96.5043 149.518 95.9447 145.847C87.2477 145.847 78.5391 145.847 69.7255 145.847Z" fill="#EDEDED"/>
<path d="M79.258 83.6905C84.0068 77.5918 88.6001 71.679 93.2167 65.7856C95.0859 63.4003 97.5574 62.4129 100.53 63.1292C103.569 63.8611 105.314 65.9211 105.858 68.9569C106.181 70.7536 105.71 72.4341 104.649 73.8862C103.227 75.8377 101.723 77.7312 100.204 79.6093C99.2867 80.7438 98.0121 80.9064 97.0134 80.132C95.9874 79.3382 95.8475 78.1185 96.7336 76.9297C97.9421 75.2995 99.1196 73.6345 100.484 72.1359C101.805 70.6877 101.595 68.7168 100.507 67.8959C99.1429 66.8698 97.709 67.2183 96.3255 68.9917C91.5146 75.1679 86.7037 81.3401 81.8967 87.5201C80.0158 89.9402 79.0132 90.0022 76.9536 87.7486C74.0158 84.5385 71.1401 81.2704 68.1362 78.1223C67.5455 77.5028 66.4613 76.9839 65.6569 77.0459C64.9224 77.1001 64.0092 77.8745 63.6206 78.5754C63.0766 79.5512 63.4652 80.616 64.2618 81.4834C66.9393 84.4069 69.5935 87.3536 72.2593 90.2887C73.9497 92.1512 75.6324 94.0176 77.3267 95.8763C78.9666 97.673 80.5676 97.6343 82.0482 95.7446C84.6713 92.3991 87.2788 89.0419 89.8941 85.6886C90.0146 85.5376 90.1195 85.3749 90.2477 85.2278C91.1687 84.1513 92.4667 83.9384 93.4499 84.7012C94.4913 85.5027 94.6662 86.7302 93.7646 87.9035C90.8462 91.6943 87.9511 95.5046 84.9161 99.2025C82.3824 102.285 77.4549 102.455 74.7191 99.5278C69.9665 94.4397 65.2877 89.282 60.6828 84.0584C58.0014 81.0187 58.3822 76.829 61.355 74.2192C64.2113 71.71 68.4471 71.9191 71.1557 74.7923C73.4134 77.1814 75.5779 79.6557 77.7891 82.0913C78.2282 82.5831 78.6829 83.0671 79.258 83.6905Z" fill="#EDEDED"/>
<path d="M19.5256 83.4272C17.2562 83.4272 14.9828 83.4466 12.7134 83.4195C10.9297 83.4001 9.96985 82.556 10.0048 81.1155C10.0359 79.7409 10.9686 78.951 12.6901 78.9432C17.2795 78.9239 21.8689 78.9239 26.4622 78.9432C28.0866 78.951 29.1436 79.8648 29.1513 81.162C29.1591 82.4553 28.0943 83.3924 26.4855 83.4156C24.1617 83.4504 21.8456 83.4272 19.5256 83.4272Z" fill="#EDEDED"/>
<path d="M145.406 83.4272C143.086 83.4272 140.766 83.4466 138.45 83.4195C136.76 83.4001 135.652 82.4359 135.707 81.1C135.761 79.8067 136.81 78.951 138.462 78.9471C143.004 78.9277 147.547 78.9277 152.086 78.9471C153.897 78.9549 154.857 79.7641 154.853 81.1852C154.849 82.6024 153.874 83.4079 152.075 83.4233C149.852 83.4427 147.629 83.4272 145.406 83.4272Z" fill="#EDEDED"/>
<path d="M30.2356 31.4431C30.8535 30.7616 31.2615 29.9175 31.8561 29.7626C32.5828 29.5729 33.6514 29.7123 34.2305 30.1576C35.5245 31.1489 36.6126 32.4112 37.7784 33.5728C39.974 35.7568 42.1735 37.9329 44.3536 40.1323C45.6476 41.4411 45.7448 42.6531 44.6839 43.656C43.658 44.6279 42.5194 44.5156 41.2564 43.2611C37.9921 40.0278 34.7318 36.7906 31.5102 33.5148C31.0089 32.9998 30.733 32.2718 30.2356 31.4431Z" fill="#EDEDED"/>
<path d="M134.583 31.598C134.082 32.3957 133.826 33.0346 133.379 33.4877C130.115 36.7906 126.823 40.0665 123.524 43.3308C122.296 44.5428 121.079 44.6047 120.096 43.5786C119.144 42.5912 119.214 41.4334 120.372 40.2679C123.683 36.9417 127.025 33.6503 130.332 30.3241C131.105 29.5458 132.05 29.2089 132.951 29.7123C133.612 30.0801 134.012 30.9088 134.583 31.598Z" fill="#EDEDED"/>
<path d="M32.6099 133.115C31.9687 132.596 31.1837 132.221 30.8146 131.601C30.2783 130.703 30.5503 129.75 31.3314 128.976C33.632 126.695 35.9247 124.403 38.2175 122.118C39.3134 121.026 40.3898 119.911 41.5167 118.85C42.6009 117.828 43.8095 117.816 44.7344 118.749C45.6592 119.679 45.6593 120.891 44.6061 121.955C41.2369 125.359 37.8444 128.736 34.4247 132.085C34.005 132.499 33.3755 132.693 32.6099 133.115Z" fill="#EDEDED"/>
<path d="M134.568 130.722C134.047 131.396 133.686 132.345 133.083 132.53C132.345 132.759 131.164 132.643 130.6 132.17C128.863 130.714 127.328 129.022 125.719 127.419C123.971 125.681 122.218 123.946 120.481 122.196C119.23 120.937 119.117 119.803 120.096 118.78C121.083 117.754 122.296 117.812 123.524 119.024C126.827 122.288 130.118 125.56 133.383 128.863C133.826 129.313 134.086 129.952 134.568 130.722Z" fill="#EDEDED"/>
<defs>
<filter id="filter0_b_508_5514" x="32.5267" y="26.9101" width="98.8428" height="101.227" filterUnits="userSpaceOnUse" color-interpolation-filters="sRGB">
<feFlood flood-opacity="0" result="BackgroundImageFix"/>
<feGaussianBlur in="BackgroundImageFix" stdDeviation="5"/>
<feComposite in2="SourceAlpha" operator="in" result="effect1_backgroundBlur_508_5514"/>
<feBlend mode="normal" in="SourceGraphic" in2="effect1_backgroundBlur_508_5514" result="shape"/>
</filter>
<radialGradient id="paint0_radial_508_5514" cx="0" cy="0" r="1" gradientUnits="userSpaceOnUse" gradientTransform="translate(82.0522 15.6267) rotate(94.3987) scale(52.1536)">
<stop stop-color="#FF6B6B"/>
<stop offset="1" stop-color="#DC2424"/>
</radialGradient>
</defs>
</svg>
