<svg width="37" height="37" viewBox="0 0 37 37" fill="none" xmlns="http://www.w3.org/2000/svg">
<path d="M16.6243 2.06901C17.2686 0.327777 19.7314 0.327775 20.3757 2.06901L23.9878 11.8306C24.1904 12.378 24.622 12.8096 25.1694 13.0122L34.931 16.6243C36.6722 17.2686 36.6722 19.7314 34.931 20.3757L25.1694 23.9878C24.622 24.1904 24.1904 24.622 23.9878 25.1694L20.3757 34.931C19.7314 36.6722 17.2686 36.6722 16.6243 34.931L13.0122 25.1694C12.8096 24.622 12.378 24.1904 11.8306 23.9878L2.06901 20.3757C0.327777 19.7314 0.327775 17.2686 2.06901 16.6243L11.8306 13.0122C12.378 12.8096 12.8096 12.378 13.0122 11.8306L16.6243 2.06901Z" fill="#1EE532"/>
</svg>
